{
  "asset": {
    "version": "2.0",
    "generator": "THREE.GLTFExporter r166"
  },
  "scenes": [
    {
      "name": "Scene",
      "nodes": [
        5
      ]
    }
  ],
  "scene": 0,
  "nodes": [
    {
      "matrix": [
        11.637993812561035,
        0,
        0,
        0,
        0,
        -0.0000015636680529741579,
        11.637999190926354,
        0,
        0,
        -11.637995376228575,
        -0.0000015636675404357954,
        0,
        0,
        0,
        0,
        1
      ],
      "name": "Object_2003",
      "extras": {
        "name": "Object_2.003"
      }
    },
    {
      "name": "Object_2003_1",
      "mesh": 0
    },
    {
      "name": "Object_2003_2",
      "mesh": 1
    },
    {
      "name": "Object_2003_3",
      "mesh": 2
    },
    {
      "name": "Object_2002",
      "extras": {
        "name": "Object_2.002"
      },
      "children": [
        1,
        2,
        3
      ]
    },
    {
      "name": "snowtree.glb",
      "children": [
        0,
        4
      ]
    }
  ],
  "bufferViews": [
    {
      "buffer": 0,
      "byteOffset": 0,
      "byteLength": 6924,
      "target": 34962,
      "byteStride": 12
    },
    {
      "buffer": 0,
      "byteOffset": 6924,
      "byteLength": 6924,
      "target": 34962,
      "byteStride": 12
    },
    {
      "buffer": 0,
      "byteOffset": 13848,
      "byteLength": 4616,
      "target": 34962,
      "byteStride": 8
    },
    {
      "buffer": 0,
      "byteOffset": 18464,
      "byteLength": 4616,
      "target": 34962,
      "byteStride": 8
    },
    {
      "buffer": 0,
      "byteOffset": 23080,
      "byteLength": 5928,
      "target": 34963
    },
    {
      "buffer": 0,
      "byteOffset": 29008,
      "byteLength": 202752,
      "target": 34962,
      "byteStride": 12
    },
    {
      "buffer": 0,
      "byteOffset": 231760,
      "byteLength": 202752,
      "target": 34962,
      "byteStride": 12
    },
    {
      "buffer": 0,
      "byteOffset": 434512,
      "byteLength": 135168,
      "target": 34962,
      "byteStride": 8
    },
    {
      "buffer": 0,
      "byteOffset": 569680,
      "byteLength": 135168,
      "target": 34962,
      "byteStride": 8
    },
    {
      "buffer": 0,
      "byteOffset": 704848,
      "byteLength": 202752,
      "target": 34963
    },
    {
      "buffer": 0,
      "byteOffset": 907600,
      "byteLength": 5784,
      "target": 34962,
      "byteStride": 12
    },
    {
      "buffer": 0,
      "byteOffset": 913384,
      "byteLength": 5784,
      "target": 34962,
      "byteStride": 12
    },
    {
      "buffer": 0,
      "byteOffset": 919168,
      "byteLength": 3856,
      "target": 34962,
      "byteStride": 8
    },
    {
      "buffer": 0,
      "byteOffset": 923024,
      "byteLength": 3856,
      "target": 34962,
      "byteStride": 8
    },
    {
      "buffer": 0,
      "byteOffset": 926880,
      "byteLength": 5184,
      "target": 34963
    }
  ],
  "buffers": [
    {
      "byteLength": 932064,
      "uri": "data:application/octet-stream;base64,"
    }
  ],
  "accessors": [
    {
      "bufferView": 0,
      "componentType": 5126,
      "count": 577,
      "max": [
        2.381147623062134,
        13.74178695678711,
        2.4216768741607666
      ],
      "min": [
        -2.598109483718872,
        2.623589277267456,
        -2.3951096534729004
      ],
      "type": "VEC3"
    },
    {
      "bufferView": 1,
      "componentType": 5126,
      "count": 577,
      "max": [
        0.9970750212669373,
        1,
        0.9999905824661255
      ],
      "min": [
        -0.9973456263542175,
        -0.9999304413795471,
        -0.9824437499046326
      ],
      "type": "VEC3"
    },
    {
      "bufferView": 2,
      "componentType": 5126,
      "count": 577,
      "max": [
        0.9737600088119507,
        0.9929749965667725
      ],
      "min": [
        0.004381000064313412,
        0.016812026500701904
      ],
      "type": "VEC2"
    },
    {
      "bufferView": 3,
      "componentType": 5126,
      "count": 577,
      "max": [
        0.9737600088119507,
        0.9929749965667725
      ],
      "min": [
        0.004381000064313412,
        0.016812026500701904
      ],
      "type": "VEC2"
    },
    {
      "bufferView": 4,
      "componentType": 5123,
      "count": 2964,
      "max": [
        576
      ],
      "min": [
        0
      ],
      "type": "SCALAR"
    },
    {
      "bufferView": 5,
      "componentType": 5126,
      "count": 16896,
      "max": [
        2.3952383995056152,
        13.440847396850586,
        2.4705989360809326
      ],
      "min": [
        -2.581256866455078,
        2.5273208618164062,
        -2.3966197967529297
      ],
      "type": "VEC3"
    },
    {
      "bufferView": 6,
      "componentType": 5126,
      "count": 16896,
      "max": [
        1,
        1,
        1
      ],
      "min": [
        -1,
        -1,
        -1
      ],
      "type": "VEC3"
    },
    {
      "bufferView": 7,
      "componentType": 5126,
      "count": 16896,
      "max": [
        0,
        1
      ],
      "min": [
        0,
        1
      ],
      "type": "VEC2"
    },
    {
      "bufferView": 8,
      "componentType": 5126,
      "count": 16896,
      "max": [
        0,
        1
      ],
      "min": [
        0,
        1
      ],
      "type": "VEC2"
    },
    {
      "bufferView": 9,
      "componentType": 5123,
      "count": 101376,
      "max": [
        16895
      ],
      "min": [
        0
      ],
      "type": "SCALAR"
    },
    {
      "bufferView": 10,
      "componentType": 5126,
      "count": 482,
      "max": [
        0.9611590504646301,
        5.017370223999023,
        0.8980942964553833
      ],
      "min": [
        -0.9294947981834412,
        -0.4196479618549347,
        -0.8980950713157654
      ],
      "type": "VEC3"
    },
    {
      "bufferView": 11,
      "componentType": 5126,
      "count": 482,
      "max": [
        0.9999972581863403,
        0.4377940893173218,
        0.9999932050704956
      ],
      "min": [
        -0.99994957447052,
        -0.019399790093302727,
        -0.9999716281890869
      ],
      "type": "VEC3"
    },
    {
      "bufferView": 12,
      "componentType": 5126,
      "count": 482,
      "max": [
        0.9938269853591919,
        0.9814540147781372
      ],
      "min": [
        0.511896014213562,
        0.4996669888496399
      ],
      "type": "VEC2"
    },
    {
      "bufferView": 13,
      "componentType": 5126,
      "count": 482,
      "max": [
        0,
        1
      ],
      "min": [
        0,
        1
      ],
      "type": "VEC2"
    },
    {
      "bufferView": 14,
      "componentType": 5123,
      "count": 2592,
      "max": [
        481
      ],
      "min": [
        0
      ],
      "type": "SCALAR"
    }
  ],
  "materials": [
    {
      "pbrMetallicRoughness": {
        "metallicFactor": 0,
        "roughnessFactor": 0.4954545497894287,
        "baseColorTexture": {
          "index": 0,
          "texCoord": 0
        }
      },
      "doubleSided": true,
      "name": "Material.012"
    },
    {
      "pbrMetallicRoughness": {
        "baseColorFactor": [
          0.6339738368988037,
          0.6250525116920471,
          0.6429740786552429,
          1
        ],
        "metallicFactor": 0,
        "roughnessFactor": 1,
        "metallicRoughnessTexture": {
          "index": 1,
          "channel": 0
        }
      },
      "doubleSided": true,
      "name": "Iceberg.002"
    },
    {
      "pbrMetallicRoughness": {
        "baseColorFactor": [
          0.31458330154418945,
          0.0997980535030365,
          0,
          1
        ],
        "metallicFactor": 0,
        "roughnessFactor": 0.5
      },
      "doubleSided": true,
      "name": "Material.001"
    }
  ],
  "textures": [
    {
      "sampler": 0,
      "source": 0,
      "name": "tree_baseColor"
    },
    {
      "sampler": 1,
      "source": 1,
      "name": "Snow_roughness"
    }
  ],
  "samplers": [
    {
      "magFilter": 9729,
      "minFilter": 9987,
      "wrapS": 10497,
      "wrapT": 10497
    },
    {
      "magFilter": 9729,
      "minFilter": 9987,
      "wrapS": 10497,
      "wrapT": 10497
    }
  ],
  "images": [
    {
      "mimeType": "image/png",
      "uri": "data:image/png;base64,"
    },
    {
      "mimeType": "image/png",
      "uri": "data:image/png;base64,"
    }
  ],
  "meshes": [
    {
      "primitives": [
        {
          "mode": 4,
          "attributes": {
            "POSITION": 0,
            "NORMAL": 1,
            "TEXCOORD_0": 2,
            "TEXCOORD_1": 3
          },
          "indices": 4,
          "material": 0
        }
      ]
    },
    {
      "primitives": [
        {
          "mode": 4,
          "attributes": {
            "POSITION": 5,
            "NORMAL": 6,
            "TEXCOORD_0": 7,
            "TEXCOORD_1": 8
          },
          "indices": 9,
          "material": 1
        }
      ]
    },
    {
      "primitives": [
        {
          "mode": 4,
          "attributes": {
            "POSITION": 10,
            "NORMAL": 11,
            "TEXCOORD_0": 12,
            "TEXCOORD_1": 13
          },
          "indices": 14,
          "material": 2
        }
      ]
    }
  ]
}